<?xml version="1.0" encoding="UTF-8" standalone="no"?><svg xmlns="http://www.w3.org/2000/svg" xmlns:xlink="http://www.w3.org/1999/xlink" contentScriptType="application/ecmascript" contentStyleType="text/css" height="872px" preserveAspectRatio="none" style="width:1074px;height:872px;" version="1.1" viewBox="0 0 1074 872" width="1074px" zoomAndPan="magnify"><defs/><g><!--MD5=[220eb97dd738422dcfb96be6c83c4129]
class Segment--><rect fill="#FEFECE" height="103.9922" id="Segment" style="stroke: #A80036; stroke-width: 1.5;" width="108" x="6" y="202"/><text fill="#000000" font-family="sans-serif" font-size="12" lengthAdjust="spacingAndGlyphs" textLength="56" x="32" y="218.1387">Segment</text><line style="stroke: #A80036; stroke-width: 1.5;" x1="7" x2="113" y1="225.9688" y2="225.9688"/><rect fill="none" height="6" style="stroke: #C82930; stroke-width: 1.0;" width="6" x="14" y="233.9688"/><text fill="#000000" font-family="sans-serif" font-size="11" lengthAdjust="spacingAndGlyphs" textLength="82" x="26" y="240.1792">Source: String</text><rect fill="none" height="6" style="stroke: #C82930; stroke-width: 1.0;" width="6" x="14" y="246.7734"/><text fill="#000000" font-family="sans-serif" font-size="11" lengthAdjust="spacingAndGlyphs" textLength="79" x="26" y="252.9839">Target: String</text><line style="stroke: #A80036; stroke-width: 1.5;" x1="7" x2="113" y1="259.5781" y2="259.5781"/><ellipse cx="17" cy="270.5781" fill="#84BE84" rx="3" ry="3" style="stroke: #038048; stroke-width: 1.0;"/><text fill="#000000" font-family="sans-serif" font-size="11" lengthAdjust="spacingAndGlyphs" textLength="42" x="26" y="273.7886">getter()</text><ellipse cx="17" cy="283.3828" fill="#84BE84" rx="3" ry="3" style="stroke: #038048; stroke-width: 1.0;"/><text fill="#000000" font-family="sans-serif" font-size="11" lengthAdjust="spacingAndGlyphs" textLength="42" x="26" y="286.5933">setter()</text><ellipse cx="17" cy="296.1875" fill="#84BE84" rx="3" ry="3" style="stroke: #038048; stroke-width: 1.0;"/><text fill="#000000" font-family="sans-serif" font-size="11" lengthAdjust="spacingAndGlyphs" textLength="73" x="26" y="299.3979">constructor()</text><!--MD5=[5038d7f1ef51d88f98301ce97b399e3b]
class TranslationMemory--><rect fill="#FEFECE" height="91.1875" id="TranslationMemory" style="stroke: #A80036; stroke-width: 1.5;" width="142" x="8" y="396"/><text fill="#000000" font-family="sans-serif" font-size="12" lengthAdjust="spacingAndGlyphs" textLength="118" x="20" y="412.1387">TranslationMemory</text><line style="stroke: #A80036; stroke-width: 1.5;" x1="9" x2="149" y1="419.9688" y2="419.9688"/><rect fill="none" height="6" style="stroke: #C82930; stroke-width: 1.0;" width="6" x="16" y="427.9688"/><text fill="#000000" font-family="sans-serif" font-size="11" lengthAdjust="spacingAndGlyphs" textLength="116" x="28" y="434.1792">Segments: ArrayList</text><line style="stroke: #A80036; stroke-width: 1.5;" x1="9" x2="149" y1="440.7734" y2="440.7734"/><ellipse cx="19" cy="451.7734" fill="#84BE84" rx="3" ry="3" style="stroke: #038048; stroke-width: 1.0;"/><text fill="#000000" font-family="sans-serif" font-size="11" lengthAdjust="spacingAndGlyphs" textLength="42" x="28" y="454.9839">getter()</text><ellipse cx="19" cy="464.5781" fill="#84BE84" rx="3" ry="3" style="stroke: #038048; stroke-width: 1.0;"/><text fill="#000000" font-family="sans-serif" font-size="11" lengthAdjust="spacingAndGlyphs" textLength="42" x="28" y="467.7886">setter()</text><ellipse cx="19" cy="477.3828" fill="#84BE84" rx="3" ry="3" style="stroke: #038048; stroke-width: 1.0;"/><text fill="#000000" font-family="sans-serif" font-size="11" lengthAdjust="spacingAndGlyphs" textLength="73" x="28" y="480.5933">constructor()</text><!--MD5=[96293e8b231702a792e4ba32419ac2da]
class Entry--><rect fill="#FEFECE" height="116.7969" id="Entry" style="stroke: #A80036; stroke-width: 1.5;" width="108" x="620" y="383"/><text fill="#000000" font-family="sans-serif" font-size="12" lengthAdjust="spacingAndGlyphs" textLength="32" x="658" y="399.1387">Entry</text><line style="stroke: #A80036; stroke-width: 1.5;" x1="621" x2="727" y1="406.9688" y2="406.9688"/><polygon fill="none" points="631,412.9688,635,416.9688,631,420.9688,627,416.9688" style="stroke: #B38D22; stroke-width: 1.0;"/><text fill="#000000" font-family="sans-serif" font-size="11" lengthAdjust="spacingAndGlyphs" textLength="82" x="640" y="421.1792">Source: String</text><polygon fill="none" points="631,425.7734,635,429.7734,631,433.7734,627,429.7734" style="stroke: #B38D22; stroke-width: 1.0;"/><text fill="#000000" font-family="sans-serif" font-size="11" lengthAdjust="spacingAndGlyphs" textLength="75" x="640" y="433.9839">Target:String</text><line style="stroke: #A80036; stroke-width: 1.5;" x1="621" x2="727" y1="440.5781" y2="440.5781"/><ellipse cx="631" cy="451.5781" fill="#84BE84" rx="3" ry="3" style="stroke: #038048; stroke-width: 1.0;"/><text fill="#000000" font-family="sans-serif" font-size="11" lengthAdjust="spacingAndGlyphs" textLength="42" x="640" y="454.7886">getter()</text><ellipse cx="631" cy="464.3828" fill="#84BE84" rx="3" ry="3" style="stroke: #038048; stroke-width: 1.0;"/><text fill="#000000" font-family="sans-serif" font-size="11" lengthAdjust="spacingAndGlyphs" textLength="42" x="640" y="467.5933">setter()</text><ellipse cx="631" cy="477.1875" fill="#84BE84" rx="3" ry="3" style="stroke: #038048; stroke-width: 1.0;"/><text fill="#000000" font-family="sans-serif" font-size="11" lengthAdjust="spacingAndGlyphs" textLength="73" x="640" y="480.3979">constructor()</text><ellipse cx="631" cy="489.9922" fill="#84BE84" rx="3" ry="3" style="stroke: #038048; stroke-width: 1.0;"/><text fill="#000000" font-family="sans-serif" font-size="11" lengthAdjust="spacingAndGlyphs" textLength="58" x="640" y="493.2026">compare()</text><!--MD5=[3637e2e3ff64f8c7ec072f5df5e3a1dc]
class Expression--><rect fill="#FEFECE" height="103.9922" id="Expression" style="stroke: #A80036; stroke-width: 1.5;" width="99" x="758.5" y="577"/><text fill="#000000" font-family="sans-serif" font-size="12" lengthAdjust="spacingAndGlyphs" textLength="68" x="774" y="593.1387">Expression</text><line style="stroke: #A80036; stroke-width: 1.5;" x1="759.5" x2="856.5" y1="600.9688" y2="600.9688"/><rect fill="none" height="6" style="stroke: #C82930; stroke-width: 1.0;" width="6" x="766.5" y="608.9688"/><text fill="#000000" font-family="sans-serif" font-size="11" lengthAdjust="spacingAndGlyphs" textLength="62" x="778.5" y="615.1792">Key: String</text><line style="stroke: #A80036; stroke-width: 1.5;" x1="759.5" x2="856.5" y1="621.7734" y2="621.7734"/><ellipse cx="769.5" cy="632.7734" fill="#84BE84" rx="3" ry="3" style="stroke: #038048; stroke-width: 1.0;"/><text fill="#000000" font-family="sans-serif" font-size="11" lengthAdjust="spacingAndGlyphs" textLength="41" x="778.5" y="635.9839">super()</text><ellipse cx="769.5" cy="645.5781" fill="#84BE84" rx="3" ry="3" style="stroke: #038048; stroke-width: 1.0;"/><text fill="#000000" font-family="sans-serif" font-size="11" lengthAdjust="spacingAndGlyphs" textLength="42" x="778.5" y="648.7886">getter()</text><ellipse cx="769.5" cy="658.3828" fill="#84BE84" rx="3" ry="3" style="stroke: #038048; stroke-width: 1.0;"/><text fill="#000000" font-family="sans-serif" font-size="11" lengthAdjust="spacingAndGlyphs" textLength="42" x="778.5" y="661.5933">setter()</text><ellipse cx="769.5" cy="671.1875" fill="#84BE84" rx="3" ry="3" style="stroke: #038048; stroke-width: 1.0;"/><text fill="#000000" font-family="sans-serif" font-size="11" lengthAdjust="spacingAndGlyphs" textLength="73" x="778.5" y="674.3979">constructor()</text><!--MD5=[c85b6e1b1c3c91235676f80997325560]
class Glossary--><rect fill="#FEFECE" height="103.9922" id="Glossary" style="stroke: #A80036; stroke-width: 1.5;" width="154" x="731" y="758"/><text fill="#000000" font-family="sans-serif" font-size="12" lengthAdjust="spacingAndGlyphs" textLength="53" x="781.5" y="774.1387">Glossary</text><line style="stroke: #A80036; stroke-width: 1.5;" x1="732" x2="884" y1="781.9688" y2="781.9688"/><rect fill="none" height="6" style="stroke: #C82930; stroke-width: 1.0;" width="6" x="739" y="789.9688"/><text fill="#000000" font-family="sans-serif" font-size="11" lengthAdjust="spacingAndGlyphs" textLength="98" x="751" y="796.1792">Entries: ArrayList</text><rect fill="none" height="6" style="stroke: #C82930; stroke-width: 1.0;" width="6" x="739" y="802.7734"/><text fill="#000000" font-family="sans-serif" font-size="11" lengthAdjust="spacingAndGlyphs" textLength="128" x="751" y="808.9839">Expressions: ArrayList</text><line style="stroke: #A80036; stroke-width: 1.5;" x1="732" x2="884" y1="815.5781" y2="815.5781"/><ellipse cx="742" cy="826.5781" fill="#84BE84" rx="3" ry="3" style="stroke: #038048; stroke-width: 1.0;"/><text fill="#000000" font-family="sans-serif" font-size="11" lengthAdjust="spacingAndGlyphs" textLength="42" x="751" y="829.7886">getter()</text><ellipse cx="742" cy="839.3828" fill="#84BE84" rx="3" ry="3" style="stroke: #038048; stroke-width: 1.0;"/><text fill="#000000" font-family="sans-serif" font-size="11" lengthAdjust="spacingAndGlyphs" textLength="42" x="751" y="842.5933">setter()</text><ellipse cx="742" cy="852.1875" fill="#84BE84" rx="3" ry="3" style="stroke: #038048; stroke-width: 1.0;"/><text fill="#000000" font-family="sans-serif" font-size="11" lengthAdjust="spacingAndGlyphs" textLength="73" x="751" y="855.3979">constructor()</text><!--MD5=[09ba3112a72025bf0dad1bf01c4f0e92]
class TranslationServices--><rect fill="#FEFECE" height="116.7969" id="TranslationServices" style="stroke: #A80036; stroke-width: 1.5;" width="128" x="294" y="8"/><text fill="#000000" font-family="sans-serif" font-size="12" lengthAdjust="spacingAndGlyphs" textLength="122" x="297" y="24.1387">TranslationServices</text><line style="stroke: #A80036; stroke-width: 1.5;" x1="295" x2="421" y1="31.9688" y2="31.9688"/><rect fill="none" height="6" style="stroke: #C82930; stroke-width: 1.0;" width="6" x="302" y="39.9688"/><text fill="#000000" font-family="sans-serif" font-size="11" lengthAdjust="spacingAndGlyphs" textLength="82" x="314" y="46.1792">Source: String</text><rect fill="none" height="6" style="stroke: #C82930; stroke-width: 1.0;" width="6" x="302" y="52.7734"/><text fill="#000000" font-family="sans-serif" font-size="11" lengthAdjust="spacingAndGlyphs" textLength="79" x="314" y="58.9839">Target: String</text><rect fill="none" height="6" style="stroke: #C82930; stroke-width: 1.0;" width="6" x="302" y="65.5781"/><text fill="#000000" font-family="sans-serif" font-size="11" lengthAdjust="spacingAndGlyphs" textLength="82" x="314" y="71.7886">MaxLength: int</text><line style="stroke: #A80036; stroke-width: 1.5;" x1="295" x2="421" y1="78.3828" y2="78.3828"/><ellipse cx="305" cy="89.3828" fill="#84BE84" rx="3" ry="3" style="stroke: #038048; stroke-width: 1.0;"/><text fill="#000000" font-family="sans-serif" font-size="11" lengthAdjust="spacingAndGlyphs" textLength="42" x="314" y="92.5933">setter()</text><ellipse cx="305" cy="102.1875" fill="#84BE84" rx="3" ry="3" style="stroke: #038048; stroke-width: 1.0;"/><text fill="#000000" font-family="sans-serif" font-size="11" lengthAdjust="spacingAndGlyphs" textLength="42" x="314" y="105.3979">getter()</text><ellipse cx="305" cy="114.9922" fill="#84BE84" rx="3" ry="3" style="stroke: #038048; stroke-width: 1.0;"/><text fill="#000000" font-family="sans-serif" font-size="11" lengthAdjust="spacingAndGlyphs" textLength="36" x="314" y="118.2026">input()</text><!--MD5=[43d3c0ba1d3b9c6f5e40c8769cc5b343]
class Source--><rect fill="#FEFECE" height="91.1875" id="Source" style="stroke: #A80036; stroke-width: 1.5;" width="124" x="296" y="208.5"/><text fill="#000000" font-family="sans-serif" font-size="12" lengthAdjust="spacingAndGlyphs" textLength="44" x="336" y="224.6387">Source</text><line style="stroke: #A80036; stroke-width: 1.5;" x1="297" x2="419" y1="232.4688" y2="232.4688"/><rect fill="none" height="6" style="stroke: #C82930; stroke-width: 1.0;" width="6" x="304" y="240.4688"/><text fill="#000000" font-family="sans-serif" font-size="11" lengthAdjust="spacingAndGlyphs" textLength="98" x="316" y="246.6792">Source: ArrayList</text><line style="stroke: #A80036; stroke-width: 1.5;" x1="297" x2="419" y1="253.2734" y2="253.2734"/><ellipse cx="307" cy="264.2734" fill="#84BE84" rx="3" ry="3" style="stroke: #038048; stroke-width: 1.0;"/><text fill="#000000" font-family="sans-serif" font-size="11" lengthAdjust="spacingAndGlyphs" textLength="34" x="316" y="267.4839">read()</text><ellipse cx="307" cy="277.0781" fill="#84BE84" rx="3" ry="3" style="stroke: #038048; stroke-width: 1.0;"/><text fill="#000000" font-family="sans-serif" font-size="11" lengthAdjust="spacingAndGlyphs" textLength="42" x="316" y="280.2886">getter()</text><ellipse cx="307" cy="289.8828" fill="#84BE84" rx="3" ry="3" style="stroke: #038048; stroke-width: 1.0;"/><text fill="#000000" font-family="sans-serif" font-size="11" lengthAdjust="spacingAndGlyphs" textLength="42" x="316" y="293.0933">setter()</text><!--MD5=[847fc839c78cd68cdbea65b88e602834]
class Output--><rect fill="#FEFECE" height="78.3828" id="Output" style="stroke: #A80036; stroke-width: 1.5;" width="105" x="455.5" y="215"/><text fill="#000000" font-family="sans-serif" font-size="12" lengthAdjust="spacingAndGlyphs" textLength="43" x="486.5" y="231.1387">Output</text><line style="stroke: #A80036; stroke-width: 1.5;" x1="456.5" x2="559.5" y1="238.9688" y2="238.9688"/><rect fill="none" height="6" style="stroke: #C82930; stroke-width: 1.0;" width="6" x="463.5" y="246.9688"/><text fill="#000000" font-family="sans-serif" font-size="11" lengthAdjust="spacingAndGlyphs" textLength="79" x="475.5" y="253.1792">Target: String</text><line style="stroke: #A80036; stroke-width: 1.5;" x1="456.5" x2="559.5" y1="259.7734" y2="259.7734"/><ellipse cx="466.5" cy="270.7734" fill="#84BE84" rx="3" ry="3" style="stroke: #038048; stroke-width: 1.0;"/><text fill="#000000" font-family="sans-serif" font-size="11" lengthAdjust="spacingAndGlyphs" textLength="44" x="475.5" y="273.9839">create()</text><ellipse cx="466.5" cy="283.5781" fill="#84BE84" rx="3" ry="3" style="stroke: #038048; stroke-width: 1.0;"/><text fill="#000000" font-family="sans-serif" font-size="11" lengthAdjust="spacingAndGlyphs" textLength="36" x="475.5" y="286.7886">write()</text><!--MD5=[b94025e931501564e3400f9529877be7]
class GlossaryServices--><rect fill="#FEFECE" height="91.1875" id="GlossaryServices" style="stroke: #A80036; stroke-width: 1.5;" width="136" x="740" y="208.5"/><text fill="#000000" font-family="sans-serif" font-size="12" lengthAdjust="spacingAndGlyphs" textLength="105" x="755.5" y="224.6387">GlossaryServices</text><line style="stroke: #A80036; stroke-width: 1.5;" x1="741" x2="875" y1="232.4688" y2="232.4688"/><line style="stroke: #A80036; stroke-width: 1.5;" x1="741" x2="875" y1="240.4688" y2="240.4688"/><ellipse cx="751" cy="251.4688" fill="#84BE84" rx="3" ry="3" style="stroke: #038048; stroke-width: 1.0;"/><text fill="#000000" font-family="sans-serif" font-size="11" lengthAdjust="spacingAndGlyphs" textLength="65" x="760" y="254.6792">inputEntry()</text><ellipse cx="751" cy="264.2734" fill="#84BE84" rx="3" ry="3" style="stroke: #038048; stroke-width: 1.0;"/><text fill="#000000" font-family="sans-serif" font-size="11" lengthAdjust="spacingAndGlyphs" textLength="99" x="760" y="267.4839">inputExpression()</text><ellipse cx="751" cy="277.0781" fill="#84BE84" rx="3" ry="3" style="stroke: #038048; stroke-width: 1.0;"/><text fill="#000000" font-family="sans-serif" font-size="11" lengthAdjust="spacingAndGlyphs" textLength="76" x="760" y="280.2886">searchEntry()</text><ellipse cx="751" cy="289.8828" fill="#84BE84" rx="3" ry="3" style="stroke: #038048; stroke-width: 1.0;"/><text fill="#000000" font-family="sans-serif" font-size="11" lengthAdjust="spacingAndGlyphs" textLength="110" x="760" y="293.0933">searchExpression()</text><!--MD5=[439755f888138946adda56bc281dd462]
class MemoryCheck--><rect fill="#FEFECE" height="116.7969" id="MemoryCheck" style="stroke: #A80036; stroke-width: 1.5;" width="119" x="204.5" y="383"/><text fill="#000000" font-family="sans-serif" font-size="12" lengthAdjust="spacingAndGlyphs" textLength="86" x="221" y="399.1387">MemoryCheck</text><line style="stroke: #A80036; stroke-width: 1.5;" x1="205.5" x2="322.5" y1="406.9688" y2="406.9688"/><rect fill="none" height="6" style="stroke: #C82930; stroke-width: 1.0;" width="6" x="212.5" y="414.9688"/><text fill="#000000" font-family="sans-serif" font-size="11" lengthAdjust="spacingAndGlyphs" textLength="93" x="224.5" y="421.1792">Words: ArrayList</text><rect fill="none" height="6" style="stroke: #C82930; stroke-width: 1.0;" width="6" x="212.5" y="427.7734"/><text fill="#000000" font-family="sans-serif" font-size="11" lengthAdjust="spacingAndGlyphs" textLength="45" x="224.5" y="433.9839">Size: int</text><rect fill="none" height="6" style="stroke: #C82930; stroke-width: 1.0;" width="6" x="212.5" y="440.5781"/><text fill="#000000" font-family="sans-serif" font-size="11" lengthAdjust="spacingAndGlyphs" textLength="69" x="224.5" y="446.7886">Matches: int</text><line style="stroke: #A80036; stroke-width: 1.5;" x1="205.5" x2="322.5" y1="453.3828" y2="453.3828"/><ellipse cx="215.5" cy="464.3828" fill="#84BE84" rx="3" ry="3" style="stroke: #038048; stroke-width: 1.0;"/><text fill="#000000" font-family="sans-serif" font-size="11" lengthAdjust="spacingAndGlyphs" textLength="42" x="224.5" y="467.5933">getter()</text><ellipse cx="215.5" cy="477.1875" fill="#84BE84" rx="3" ry="3" style="stroke: #038048; stroke-width: 1.0;"/><text fill="#000000" font-family="sans-serif" font-size="11" lengthAdjust="spacingAndGlyphs" textLength="42" x="224.5" y="480.3979">setter()</text><ellipse cx="215.5" cy="489.9922" fill="#84BE84" rx="3" ry="3" style="stroke: #038048; stroke-width: 1.0;"/><text fill="#000000" font-family="sans-serif" font-size="11" lengthAdjust="spacingAndGlyphs" textLength="73" x="224.5" y="493.2026">constructor()</text><!--MD5=[383ee4d342beaeaa45d9eb3f6dc27701]
class MemoryServices--><rect fill="#FEFECE" height="103.9922" id="MemoryServices" style="stroke: #A80036; stroke-width: 1.5;" width="112" x="149" y="202"/><text fill="#000000" font-family="sans-serif" font-size="12" lengthAdjust="spacingAndGlyphs" textLength="100" x="155" y="218.1387">MemoryServices</text><line style="stroke: #A80036; stroke-width: 1.5;" x1="150" x2="260" y1="225.9688" y2="225.9688"/><rect fill="none" height="6" style="stroke: #C82930; stroke-width: 1.0;" width="6" x="157" y="233.9688"/><text fill="#000000" font-family="sans-serif" font-size="11" lengthAdjust="spacingAndGlyphs" textLength="86" x="169" y="240.1792">Percentage: int</text><line style="stroke: #A80036; stroke-width: 1.5;" x1="150" x2="260" y1="246.7734" y2="246.7734"/><ellipse cx="160" cy="257.7734" fill="#84BE84" rx="3" ry="3" style="stroke: #038048; stroke-width: 1.0;"/><text fill="#000000" font-family="sans-serif" font-size="11" lengthAdjust="spacingAndGlyphs" textLength="42" x="169" y="260.9839">setter()</text><ellipse cx="160" cy="270.5781" fill="#84BE84" rx="3" ry="3" style="stroke: #038048; stroke-width: 1.0;"/><text fill="#000000" font-family="sans-serif" font-size="11" lengthAdjust="spacingAndGlyphs" textLength="42" x="169" y="273.7886">getter()</text><ellipse cx="160" cy="283.3828" fill="#84BE84" rx="3" ry="3" style="stroke: #038048; stroke-width: 1.0;"/><text fill="#000000" font-family="sans-serif" font-size="11" lengthAdjust="spacingAndGlyphs" textLength="32" x="169" y="286.5933">split()</text><ellipse cx="160" cy="296.1875" fill="#84BE84" rx="3" ry="3" style="stroke: #038048; stroke-width: 1.0;"/><text fill="#000000" font-family="sans-serif" font-size="11" lengthAdjust="spacingAndGlyphs" textLength="58" x="169" y="299.3979">compare()</text><!--MD5=[d72a98d01ec5487c53adf87af24be754]
class GlossaryImport--><rect fill="#FEFECE" height="103.9922" id="GlossaryImport" style="stroke: #A80036; stroke-width: 1.5;" width="99" x="595.5" y="202"/><text fill="#000000" font-family="sans-serif" font-size="12" lengthAdjust="spacingAndGlyphs" textLength="93" x="598.5" y="218.1387">GlossaryImport</text><line style="stroke: #A80036; stroke-width: 1.5;" x1="596.5" x2="693.5" y1="225.9688" y2="225.9688"/><rect fill="none" height="6" style="stroke: #C82930; stroke-width: 1.0;" width="6" x="603.5" y="233.9688"/><text fill="#000000" font-family="sans-serif" font-size="11" lengthAdjust="spacingAndGlyphs" textLength="65" x="615.5" y="240.1792">Line: String</text><rect fill="none" height="6" style="stroke: #C82930; stroke-width: 1.0;" width="6" x="603.5" y="246.7734"/><text fill="#000000" font-family="sans-serif" font-size="11" lengthAdjust="spacingAndGlyphs" textLength="55" x="615.5" y="252.9839">L1: String</text><rect fill="none" height="6" style="stroke: #C82930; stroke-width: 1.0;" width="6" x="603.5" y="259.5781"/><text fill="#000000" font-family="sans-serif" font-size="11" lengthAdjust="spacingAndGlyphs" textLength="55" x="615.5" y="265.7886">L2: String</text><rect fill="none" height="6" style="stroke: #C82930; stroke-width: 1.0;" width="6" x="603.5" y="272.3828"/><text fill="#000000" font-family="sans-serif" font-size="11" lengthAdjust="spacingAndGlyphs" textLength="62" x="615.5" y="278.5933">Entries: int</text><line style="stroke: #A80036; stroke-width: 1.5;" x1="596.5" x2="693.5" y1="285.1875" y2="285.1875"/><ellipse cx="606.5" cy="296.1875" fill="#84BE84" rx="3" ry="3" style="stroke: #038048; stroke-width: 1.0;"/><text fill="#000000" font-family="sans-serif" font-size="11" lengthAdjust="spacingAndGlyphs" textLength="34" x="615.5" y="299.3979">read()</text><!--MD5=[eb405166719fc9a3a0c9ac9aa6ba4509]
class GlossaryExport--><rect fill="#FEFECE" height="65.5781" id="GlossaryExport" style="stroke: #A80036; stroke-width: 1.5;" width="99" x="964.5" y="408.5"/><text fill="#000000" font-family="sans-serif" font-size="12" lengthAdjust="spacingAndGlyphs" textLength="93" x="967.5" y="424.6387">GlossaryExport</text><line style="stroke: #A80036; stroke-width: 1.5;" x1="965.5" x2="1062.5" y1="432.4688" y2="432.4688"/><rect fill="none" height="6" style="stroke: #C82930; stroke-width: 1.0;" width="6" x="972.5" y="440.4688"/><text fill="#000000" font-family="sans-serif" font-size="11" lengthAdjust="spacingAndGlyphs" textLength="66" x="984.5" y="446.6792">Text: String</text><line style="stroke: #A80036; stroke-width: 1.5;" x1="965.5" x2="1062.5" y1="453.2734" y2="453.2734"/><ellipse cx="975.5" cy="464.2734" fill="#84BE84" rx="3" ry="3" style="stroke: #038048; stroke-width: 1.0;"/><text fill="#000000" font-family="sans-serif" font-size="11" lengthAdjust="spacingAndGlyphs" textLength="36" x="984.5" y="467.4839">write()</text><!--MD5=[be2fc43b02c9057dcd8fd073567adbf9]
reverse link Entry to Expression--><path d="M727.43,516.46 C742.08,536.74 757.63,558.27 771.13,576.96 " fill="none" id="Entry&lt;-Expression" style="stroke: #A80036; stroke-width: 1.0;"/><polygon fill="none" points="721.7,520.49,715.66,500.18,733.05,512.29,721.7,520.49" style="stroke: #A80036; stroke-width: 1.0;"/><!--MD5=[5db7f2dd2aad1cb6caa0f683a43aaca5]
link Segment to TranslationMemory--><path d="M55.48,306 C54.93,321.17 55.12,337.8 57,353 C58.55,365.49 61.29,378.76 64.32,391.08 " fill="none" id="Segment-&gt;TranslationMemory" style="stroke: #A80036; stroke-width: 1.0;"/><polygon fill="#A80036" points="65.55,395.94,67.2141,386.2327,64.3205,391.0935,59.4597,388.1999,65.55,395.94" style="stroke: #A80036; stroke-width: 1.0;"/><text fill="#000000" font-family="sans-serif" font-size="13" lengthAdjust="spacingAndGlyphs" textLength="56" x="58" y="349.0669">stored in</text><!--MD5=[56ff87e1ab5f274385d8f2cb85c11a4a]
link Expression to Glossary--><path d="M808,681.29 C808,703.58 808,729.75 808,752.58 " fill="none" id="Expression-&gt;Glossary" style="stroke: #A80036; stroke-width: 1.0;"/><polygon fill="#A80036" points="808,757.7,812,748.7,808,752.7,804,748.7,808,757.7" style="stroke: #A80036; stroke-width: 1.0;"/><text fill="#000000" font-family="sans-serif" font-size="13" lengthAdjust="spacingAndGlyphs" textLength="56" x="809" y="724.0669">stored in</text><!--MD5=[5c18215f611ac6e3b099575d75fc2f71]
link Entry to Glossary--><path d="M664.89,500.44 C659.62,550.38 658.23,623.32 683,681 C694.93,708.79 715.87,733.96 737.24,754.48 " fill="none" id="Entry-&gt;Glossary" style="stroke: #A80036; stroke-width: 1.0;"/><polygon fill="#A80036" points="740.95,757.99,737.1555,748.9015,737.3157,754.556,731.6611,754.7163,740.95,757.99" style="stroke: #A80036; stroke-width: 1.0;"/><text fill="#000000" font-family="sans-serif" font-size="13" lengthAdjust="spacingAndGlyphs" textLength="56" x="684" y="633.5669">stored in</text><!--MD5=[ca653a8c865a5bfaa1312f1225eaaf90]
link TranslationServices to Segment--><path d="M293.97,103.43 C247.99,129.71 184.87,166.79 131,202 C126.9,204.68 122.71,207.49 118.51,210.36 " fill="none" id="TranslationServices-&gt;Segment" style="stroke: #A80036; stroke-width: 1.0;"/><polygon fill="#A80036" points="114.32,213.25,124.0054,211.4631,118.4448,210.424,119.4838,204.8634,114.32,213.25" style="stroke: #A80036; stroke-width: 1.0;"/><text fill="#000000" font-family="sans-serif" font-size="13" lengthAdjust="spacingAndGlyphs" textLength="48" x="206" y="168.0669">creates</text><!--MD5=[318a72c626b0553d27c3b6b48aaf6c7e]
reverse link TranslationServices to Source--><path d="M358,130.25 C358,155.88 358,184.92 358,208.32 " fill="none" id="TranslationServices&lt;-Source" style="stroke: #A80036; stroke-width: 1.0;"/><polygon fill="#A80036" points="358,125.18,354,134.18,358,130.18,362,134.18,358,125.18" style="stroke: #A80036; stroke-width: 1.0;"/><text fill="#000000" font-family="sans-serif" font-size="13" lengthAdjust="spacingAndGlyphs" textLength="72" x="359" y="168.0669">source text</text><!--MD5=[461fe8e17a551a6054779fb125ca8024]
link TranslationServices to Output--><path d="M414.36,125.27 C423.18,134.99 432.02,145.12 440,155 C454.16,172.52 468.57,192.85 480.45,210.43 " fill="none" id="TranslationServices-&gt;Output" style="stroke: #A80036; stroke-width: 1.0;"/><polygon fill="#A80036" points="483.42,214.84,481.7328,205.1367,480.6366,210.6863,475.087,209.5901,483.42,214.84" style="stroke: #A80036; stroke-width: 1.0;"/><text fill="#000000" font-family="sans-serif" font-size="13" lengthAdjust="spacingAndGlyphs" textLength="68" x="453" y="168.0669">target text</text><!--MD5=[1ddabeb74aacfbac743887425680cb95]
link TranslationServices to GlossaryServices--><path d="M422.29,89.2 C493.98,114.02 612.9,157.07 712,202 C719.54,205.42 727.32,209.17 735.03,213.03 " fill="none" id="TranslationServices-&gt;GlossaryServices" style="stroke: #A80036; stroke-width: 1.0;"/><polygon fill="#A80036" points="739.82,215.44,733.5881,207.8135,735.3565,213.1868,729.9831,214.9551,739.82,215.44" style="stroke: #A80036; stroke-width: 1.0;"/><text fill="#000000" font-family="sans-serif" font-size="13" lengthAdjust="spacingAndGlyphs" textLength="30" x="637" y="168.0669">uses</text><!--MD5=[2083b84ea0b591e6993ff0516b45caee]
link GlossaryServices to Entry--><path d="M762.52,299.54 C751.92,310.95 741.09,323.54 732,336 C722.42,349.14 713.26,364.03 705.18,378.37 " fill="none" id="GlossaryServices-&gt;Entry" style="stroke: #A80036; stroke-width: 1.0;"/><polygon fill="#A80036" points="702.7,382.8,710.5822,376.8948,705.1391,378.4353,703.5986,372.9922,702.7,382.8" style="stroke: #A80036; stroke-width: 1.0;"/><text fill="#000000" font-family="sans-serif" font-size="13" lengthAdjust="spacingAndGlyphs" textLength="48" x="733" y="349.0669">creates</text><!--MD5=[89a0b459d414799c7b1cf87d6771effa]
link GlossaryServices to Expression--><path d="M808,299.62 C808,367.6 808,497.05 808,571.5 " fill="none" id="GlossaryServices-&gt;Expression" style="stroke: #A80036; stroke-width: 1.0;"/><polygon fill="#A80036" points="808,576.77,812,567.77,808,571.77,804,567.77,808,576.77" style="stroke: #A80036; stroke-width: 1.0;"/><text fill="#000000" font-family="sans-serif" font-size="13" lengthAdjust="spacingAndGlyphs" textLength="48" x="809" y="446.0669">creates</text><!--MD5=[3663a1edabb2dee326f8876cd4a66db0]
link GlossaryServices to Glossary--><path d="M833.32,299.71 C845.54,323.63 859.04,354.06 866,383 C896.97,511.83 876.41,548.5 875,681 C874.78,701.89 881.21,708.39 874,728 C870.78,736.76 866.18,745.28 860.9,753.29 " fill="none" id="GlossaryServices-&gt;Glossary" style="stroke: #A80036; stroke-width: 1.0;"/><polygon fill="#A80036" points="857.89,757.68,866.2644,752.4964,860.7062,753.5486,859.6541,747.9904,857.89,757.68" style="stroke: #A80036; stroke-width: 1.0;"/><text fill="#000000" font-family="sans-serif" font-size="13" lengthAdjust="spacingAndGlyphs" textLength="53" x="883" y="543.0669">consults</text><!--MD5=[10a57ffa7f4cdd963b564b6e361f96f2]
link TranslationServices to MemoryServices--><path d="M310.43,125.18 C291.27,148.4 269.28,175.07 250.35,198.01 " fill="none" id="TranslationServices-&gt;MemoryServices" style="stroke: #A80036; stroke-width: 1.0;"/><polygon fill="#A80036" points="247.1,201.96,255.9057,197.5486,250.2755,198.0979,249.7262,192.4677,247.1,201.96" style="stroke: #A80036; stroke-width: 1.0;"/><text fill="#000000" font-family="sans-serif" font-size="13" lengthAdjust="spacingAndGlyphs" textLength="53" x="283" y="168.0669">consults</text><!--MD5=[5242918fd518aca1f99101964d3da5c7]
link MemoryServices to MemoryCheck--><path d="M221.28,306.18 C228.35,328.41 236.69,354.65 244.13,378.01 " fill="none" id="MemoryServices-&gt;MemoryCheck" style="stroke: #A80036; stroke-width: 1.0;"/><polygon fill="#A80036" points="245.7,382.95,246.7901,373.1617,244.1875,378.1842,239.1649,375.5816,245.7,382.95" style="stroke: #A80036; stroke-width: 1.0;"/><text fill="#000000" font-family="sans-serif" font-size="13" lengthAdjust="spacingAndGlyphs" textLength="48" x="236" y="349.0669">creates</text><!--MD5=[79c6e7dbb2f7847dd6d88c0f129332d1]
link MemoryServices to TranslationMemory--><path d="M170.24,306.18 C152.12,332.85 130.08,365.3 112.2,391.63 " fill="none" id="MemoryServices-&gt;TranslationMemory" style="stroke: #A80036; stroke-width: 1.0;"/><polygon fill="#A80036" points="109.36,395.8,117.7221,390.5966,112.1665,391.6619,111.1011,386.1063,109.36,395.8" style="stroke: #A80036; stroke-width: 1.0;"/><text fill="#000000" font-family="sans-serif" font-size="13" lengthAdjust="spacingAndGlyphs" textLength="64" x="151" y="349.0669">compares</text><!--MD5=[2a84a665a8380bff41ee3f83f3f7d644]
link GlossaryImport to Entry--><path d="M639.48,306.15 C638.91,321.32 639.33,337.92 642,353 C643.45,361.18 645.6,369.59 648.12,377.83 " fill="none" id="GlossaryImport-&gt;Entry" style="stroke: #A80036; stroke-width: 1.0;"/><polygon fill="#A80036" points="649.74,382.92,650.8568,373.1347,648.2405,378.1501,643.225,375.5339,649.74,382.92" style="stroke: #A80036; stroke-width: 1.0;"/><text fill="#000000" font-family="sans-serif" font-size="13" lengthAdjust="spacingAndGlyphs" textLength="48" x="643" y="349.0669">creates</text><!--MD5=[add4581452c695989b0b36731ba6d08f]
link GlossaryServices to GlossaryExport--><path d="M876.04,291.14 C896.79,303.84 918.88,319.18 937,336 C958.52,355.98 978.09,382.7 992.11,404.11 " fill="none" id="GlossaryServices-&gt;GlossaryExport" style="stroke: #A80036; stroke-width: 1.0;"/><polygon fill="#A80036" points="994.84,408.32,993.2994,398.5924,992.1196,404.1248,986.5871,402.945,994.84,408.32" style="stroke: #A80036; stroke-width: 1.0;"/><text fill="#000000" font-family="sans-serif" font-size="13" lengthAdjust="spacingAndGlyphs" textLength="48" x="952" y="349.0669">exports</text><!--MD5=[a1fe46759efe196a1aae7a28d6fff59b]
@startuml OpenCATe
skinparam   Style   strictuml
skinparam   SequenceMessageAlignment center


class Segment{
    -Source: String
    -Target: String
    +getter()
    +setter()
    +constructor()
}

class TranslationMemory{
    -Segments: ArrayList
    +getter()
    +setter()
    +constructor()
}

class Entry{
    #Source: String 
    #Target:String
    +getter()
    +setter()
    +constructor()
    +compare()
}

class Expression extends Entry{
    -Key: String
    +super()
    +getter()
    +setter()
    +constructor()
}

class Glossary{
    -Entries: ArrayList
    -Expressions: ArrayList
    +getter()
    +setter()
    +constructor()
}

class TranslationServices{
    -Source: String
    -Target: String
    -MaxLength: int
    +setter()
    +getter()
    +input()
}

class Source{
    -Source: ArrayList
    +read()
    +getter()
    +setter()
}

class Output{
    -Target: String
    +create()
    +write()
}

class GlossaryServices{
    +inputEntry()
    +inputExpression()
    +searchEntry()
    +searchExpression()
}

class MemoryCheck{
    -Words: ArrayList
    -Size: int
    -Matches: int
    +getter()
    +setter()
    +constructor()
}

class MemoryServices{
    -Percentage: int
    +setter()
    +getter()
    +split()
    +compare()
}

class GlossaryImport{
    -Line: String
    -L1: String
    -L2: String
    -Entries: int
    +read()
}

class GlossaryExport{
    -Text: String
    +write()
}

Segment - -> TranslationMemory :stored in
Expression - -> Glossary :stored in
Entry - -> Glossary :stored in
TranslationServices- -> Segment :creates
TranslationServices<- - Source: source text
TranslationServices - -> Output: target text
TranslationServices - -> GlossaryServices: uses
GlossaryServices - -> Entry : creates
GlossaryServices - -> Expression: creates
GlossaryServices - -> Glossary: consults
TranslationServices - -> MemoryServices: consults
MemoryServices - -> MemoryCheck: creates
MemoryServices - -> TranslationMemory: compares
GlossaryImport - -> Entry: creates
GlossaryServices - -> GlossaryExport :exports
@enduml

PlantUML version 1.2020.10(Sun May 17 06:35:57 ART 2020)
(GPL source distribution)
Java Runtime: OpenJDK Runtime Environment
JVM: OpenJDK 64-Bit Server VM
Java Version: 14.0.1+7-Ubuntu-1ubuntu1
Operating System: Linux
Default Encoding: UTF-8
Language: es
Country: AR
--></g></svg>